<svg width="50" height="29" viewBox="0 0 50 29" fill="none" xmlns="http://www.w3.org/2000/svg">
<path d="M7.22559 13.3282C7.22559 12.8816 7.36323 12.4458 7.61977 12.0802C7.72402 11.9316 7.84648 11.7967 7.98428 11.6785L8.01945 11.6484C8.17856 11.512 8.35394 11.3958 8.54159 11.3024L8.903 11.1227L9.6901 10.7485L11.6901 9.85815V25.8582L10.7441 25.7219C10.2935 25.6569 9.85545 25.5232 9.44537 25.3254C9.07878 25.1485 8.7382 24.9222 8.43314 24.6528L8.27097 24.5095C7.98187 24.2542 7.75327 23.9377 7.60176 23.583C7.35355 23.0018 7.22559 22.3765 7.22559 21.7446V13.3282Z" fill="#051C3C"/>
<path d="M12.7227 7.11694C16.9219 8.30281 20 12.1602 20 16.739C20 21.3177 16.9218 25.1742 12.7227 26.3601V25.8279C16.603 24.6683 19.4326 21.0737 19.4326 16.8162C19.4325 12.5586 16.6032 8.96292 12.7227 7.80347V7.11694ZM6.42578 8.12476C3.01734 9.53811 0.619211 12.8966 0.619141 16.8162C0.619141 20.7356 3.01754 24.0931 6.42578 25.5066V26.0779C2.66877 24.6391 3.92503e-05 21.0021 0 16.739C0 12.4758 2.6686 8.83788 6.42578 7.39917V8.12476Z" fill="#3869AE"/>
<path d="M10.0257 9.85815L8.69664 8.0388L7.23858 5.88396L10.1031 6.78719L12.7354 5.88396L11.316 8.0388L10.0257 9.85815Z" fill="#1467DD"/>
<path d="M10 0C11.974 1.43024e-05 13.5742 1.60025 13.5742 3.57422C13.5742 5.54817 11.974 7.14842 10 7.14844C8.02604 7.14844 6.42579 5.54818 6.42578 3.57422C6.42578 1.60025 8.02603 0 10 0ZM9.9873 2.15527C9.27468 2.15527 8.69629 2.73269 8.69629 3.44531C8.69637 4.15787 9.27473 4.73535 9.9873 4.73535C10.6998 4.73524 11.2773 4.1578 11.2773 3.44531C11.2773 2.73276 10.6998 2.15539 9.9873 2.15527Z" fill="#1467DD"/>
<path d="M34.3381 9.45455V24H32.321L24.9276 13.3324H24.7926V24H22.598V9.45455H24.6293L32.0298 20.1364H32.1648V9.45455H34.3381ZM38.7681 24H36.4386L41.6729 9.45455H44.2085L49.4428 24H47.1133L43.0011 12.0966H42.8874L38.7681 24ZM39.1587 18.304H46.7156V20.1506H39.1587V18.304Z" fill="#1467DD"/>
</svg>
