<svg width="2006" height="1022" viewBox="0 0 2006 1022" fill="none" xmlns="http://www.w3.org/2000/svg">
<path d="M280 516.466C280 499.158 285.334 482.271 295.275 468.103C299.314 462.346 304.059 457.117 309.399 452.54L310.762 451.372C316.928 446.086 323.724 441.583 330.995 437.966L345 431L375.5 416.5L453 382V1002L416.343 996.718C398.88 994.202 381.907 989.021 366.017 981.355C351.811 974.502 338.614 965.732 326.793 955.291L320.509 949.741C309.306 939.847 300.448 927.582 294.577 913.836C284.959 891.318 280 867.085 280 842.599V516.466Z" fill="#051C3C"/>
<path d="M493 275.67C655.737 321.612 775 471.194 775 648.633C775 826.072 655.737 975.654 493 1021.6V1000.93C643.38 956.005 753 816.622 753 651.633C753 486.644 643.38 347.259 493 302.335V275.67ZM249 314.781C116.91 369.545 24 499.738 24 651.633C24 803.527 116.911 933.72 249 988.483V1010.65C103.392 954.904 0 813.844 0 648.633C0 483.422 103.392 342.36 249 286.619V314.781Z" fill="#3869AE"/>
<path d="M388.5 382L337 311.5L280.5 228L391.5 263L493.5 228L438.5 311.5L388.5 382Z" fill="#1467DD"/>
<path d="M387.5 0C463.991 0 526 62.0086 526 138.5C526 214.991 463.991 277 387.5 277C311.009 277 249 214.991 249 138.5C249 62.0086 311.009 0 387.5 0ZM387 83.5C359.386 83.5 337 105.886 337 133.5C337 161.114 359.386 183.5 387 183.5C414.614 183.5 437 161.114 437 133.5C437 105.886 414.614 83.5 387 83.5Z" fill="#1467DD"/>
<path d="M930.436 343.909V853H838.213V343.909H930.436ZM1448.66 343.909V853H1366.63L1126.75 506.232H1122.53V853H1030.3V343.909H1112.83L1352.46 690.926H1356.94V343.909H1448.66ZM1614.53 853H1516.09L1695.32 343.909H1809.16L1988.64 853H1890.2L1754.23 448.312H1750.25L1614.53 853ZM1617.76 653.391H1886.22V727.467H1617.76V653.391Z" fill="#1467DD"/>
</svg>
