<svg width="752" height="991" viewBox="0 0 752 991" fill="none" xmlns="http://www.w3.org/2000/svg">
<path d="M271.614 500.998C271.614 484.209 276.788 467.828 286.431 454.084C290.35 448.499 294.953 443.427 300.133 438.987L301.455 437.854C307.436 432.726 314.029 428.358 321.082 424.85L334.668 418.092L364.254 404.026L439.433 370.56V971.991L403.874 966.868C386.934 964.427 370.469 959.4 355.055 951.964C341.275 945.316 328.472 936.81 317.005 926.682L310.91 921.298C300.043 911.699 291.45 899.802 285.754 886.468C276.424 864.624 271.614 841.117 271.614 817.364V500.998Z" fill="#051C3C"/>
<path d="M478.235 267.414C636.099 311.98 751.789 457.082 751.789 629.207C751.789 801.332 636.099 946.434 478.235 991V970.954C624.112 927.375 730.448 792.165 730.448 632.117C730.448 472.069 624.112 336.859 478.235 293.28V267.414ZM241.543 305.353C113.409 358.476 23.2813 484.771 23.2812 632.117C23.2812 779.462 113.409 905.756 241.543 958.88V980.379C100.295 926.307 0 789.47 0 629.207C6.32652e-05 468.943 100.295 332.106 241.543 278.035V305.353Z" fill="#3869AE"/>
<path d="M376.865 370.56L326.907 302.171L272.099 221.172L379.775 255.123L478.72 221.172L425.367 302.171L376.865 370.56Z" fill="#1467DD"/>
<path d="M375.895 0C450.095 0.000255644 510.247 60.1521 510.247 134.353C510.246 208.553 450.095 268.704 375.895 268.704C301.695 268.704 241.543 208.553 241.542 134.353C241.542 60.1519 301.694 0 375.895 0ZM375.41 80.999C348.622 80.9991 326.907 102.715 326.907 129.502C326.907 156.289 348.623 178.004 375.41 178.004C402.197 178.004 423.913 156.289 423.913 129.502C423.913 102.715 402.197 80.999 375.41 80.999Z" fill="#1467DD"/>
</svg>
